<svg width="35" height="35" viewBox="0 0 35 35" fill="none" xmlns="http://www.w3.org/2000/svg">
<circle cx="17.5" cy="17.5" r="16.5" stroke="#4CAF50" stroke-width="2"/>
<path d="M11.875 12.4375C11.875 11.325 12.2049 10.2374 12.823 9.31242C13.4411 8.38739 14.3196 7.66642 15.3474 7.24068C16.3753 6.81494 17.5063 6.70354 18.5974 6.92059C19.6885 7.13763 20.6908 7.67336 21.4775 8.46003C22.2642 9.2467 22.7999 10.249 23.0169 11.3401C23.234 12.4313 23.1226 13.5623 22.6968 14.5901C22.2711 15.6179 21.5501 16.4964 20.6251 17.1145C19.7001 17.7326 18.6125 18.0625 17.5 18.0625C16.0087 18.0607 14.579 17.4675 13.5245 16.413C12.47 15.3585 11.8768 13.9288 11.875 12.4375ZM22.1316 19.2674C21.4968 19.1099 20.826 19.1975 20.2529 19.5126C19.4105 19.9797 18.4632 20.2248 17.5 20.2248C16.5368 20.2248 15.5895 19.9797 14.7471 19.5126C14.1739 19.1979 13.5032 19.1104 12.8684 19.2674C11.7729 19.5499 10.8032 20.1905 10.1136 21.0874C9.424 21.9843 9.05403 23.086 9.06252 24.2174V25.3548C9.06266 26.0673 9.25421 26.7666 9.61715 27.3798C9.76801 27.6275 9.98044 27.832 10.2338 27.9734C10.4871 28.1147 10.7727 28.1881 11.0628 28.1864H23.9373C24.2275 28.1881 24.5132 28.1146 24.7665 27.973C25.0199 27.8315 25.2323 27.6267 25.3829 27.3786C25.7461 26.7656 25.9377 26.0662 25.9375 25.3536V24.2129C25.945 23.0823 25.5746 21.9816 24.885 21.0856C24.1955 20.1897 23.2264 19.5497 22.1316 19.2674Z" fill="#0F0F0F"/>
</svg>
