<svg width="18" height="18" viewBox="0 0 18 18" fill="none" xmlns="http://www.w3.org/2000/svg">
<path d="M5.99701 6.59758C5.99701 4.73204 7.34013 3.21429 8.99103 3.21429C10.6419 3.21429 11.9851 4.73204 11.9851 6.59758C11.9851 8.46312 10.6419 9.98086 8.99103 9.98086C7.34013 9.98086 5.99701 8.46312 5.99701 6.59758ZM11.4563 10.7056C11.1216 10.6095 10.7575 10.6637 10.4563 10.8531C9.54734 11.4242 8.43473 11.4242 7.52575 10.8531C7.22515 10.6643 6.86049 10.6109 6.52575 10.7056C5.33293 11.046 4.5 12.2693 4.5 13.6802V14.3643C4.5 14.796 4.60179 15.2181 4.7952 15.5862C4.95268 15.8853 5.24792 16.0714 5.56468 16.0714H12.4168C12.7336 16.0714 13.0288 15.886 13.1862 15.5856C13.3797 15.2182 13.4815 14.796 13.4815 14.3643V13.6802C13.4821 12.2693 12.6491 11.046 11.4563 10.7056Z" fill="#4CAF50"/>
<circle cx="9" cy="9" r="7.5" stroke="#4CAF50" stroke-width="3"/>
</svg>
