<svg width="18" height="18" viewBox="0 0 18 18" fill="none" xmlns="http://www.w3.org/2000/svg">
<path d="M17.7479 16.4779L13.6713 12.4013C14.881 10.8677 15.4589 8.92987 15.287 6.98419C15.115 5.03851 14.2062 3.23206 12.7463 1.93439C11.2864 0.636728 9.3858 -0.0540734 7.43338 0.00330871C5.48096 0.0606909 3.62425 0.86192 2.24309 2.24309C0.86192 3.62425 0.0606909 5.48096 0.00330871 7.43338C-0.0540734 9.3858 0.636728 11.2864 1.93439 12.7463C3.23206 14.2062 5.03851 15.115 6.98419 15.287C8.92987 15.4589 10.8677 14.881 12.4013 13.6713L16.4779 17.7479C16.6473 17.9115 16.8742 18.002 17.1097 18C17.3452 17.9979 17.5704 17.9035 17.7369 17.7369C17.9035 17.5704 17.9979 17.3452 18 17.1097C18.002 16.8742 17.9115 16.6473 17.7479 16.4779ZM1.84468 7.68253C1.84468 6.52791 2.18706 5.39922 2.82853 4.43919C3.47001 3.47916 4.38175 2.73091 5.44848 2.28906C6.51521 1.84721 7.68901 1.7316 8.82144 1.95685C9.95387 2.18211 10.9941 2.73811 11.8105 3.55455C12.627 4.37098 13.183 5.41119 13.4082 6.54362C13.6335 7.67605 13.5179 8.84985 13.076 9.91658C12.6341 10.9833 11.8859 11.8951 10.9259 12.5365C9.96584 13.178 8.83715 13.5204 7.68253 13.5204C6.13482 13.5185 4.65104 12.9028 3.55665 11.8084C2.46225 10.714 1.84658 9.23024 1.84468 7.68253Z" fill="white"/>
</svg>
