<svg width="29" height="31" viewBox="0 0 29 31" fill="none" xmlns="http://www.w3.org/2000/svg">
<path d="M27.4749 14.5345L22.8338 19.574L23.9292 26.683C24.1081 27.8434 23.6937 29.0004 22.8472 29.7011C21.9842 30.4135 20.8574 30.5113 19.9065 29.9572L14.1594 26.5938L8.41231 29.9572C8.00394 30.1964 7.56128 30.3141 7.1216 30.3141C6.54033 30.3141 5.9635 30.107 5.47165 29.7011C4.62658 29.0004 4.21077 27.8434 4.38962 26.683L5.48507 19.574L0.843882 14.5345C0.0837604 13.7093 -0.189019 12.4952 0.132914 11.3668C0.457829 10.2249 1.31929 9.41151 2.38048 9.23972L8.8028 8.20025L11.6734 1.72451C12.1443 0.660085 13.0982 0 14.1594 0C15.2206 0 16.1745 0.66177 16.6455 1.72451L19.516 8.20025L25.9383 9.23972C26.998 9.41151 27.8595 10.2249 28.1844 11.3668C28.5063 12.4952 28.2351 13.7093 27.4749 14.5345Z" fill="#4CAF50"/>
</svg>
